<svg width="225" height="68" viewBox="0 0 225 68" fill="none" xmlns="http://www.w3.org/2000/svg">
<path d="M21.81 1.2H28.46L6.97 67.56H0.32L21.81 1.2ZM59.6751 32.77C59.1151 31.09 58.6717 29.2 58.3451 27.1C58.0651 24.9533 57.9251 23.6233 57.9251 23.11H56.8051C56.8051 23.6233 56.6651 24.9533 56.3851 27.1C56.1051 29.2 55.6617 31.09 55.0551 32.77L47.8451 53H41.1951L29.9951 16.88H36.5051L42.1751 37.39C42.6884 39.1633 43.1084 41.0767 43.4351 43.13C43.7617 45.1833 43.9717 46.5133 44.0651 47.12H45.1851C45.1851 46.7 45.3484 45.4167 45.6751 43.27C46.0484 41.0767 46.5384 39.1167 47.1451 37.39L54.2851 16.88H60.4451L67.5851 37.39C68.1917 39.1167 68.6584 41.0767 68.9851 43.27C69.3584 45.4167 69.5451 46.7 69.5451 47.12H70.6651C70.7584 46.5133 70.9684 45.1833 71.2951 43.13C71.6217 41.0767 72.0417 39.1633 72.5551 37.39L78.2251 16.88H84.7351L73.5351 53H66.8851L59.6751 32.77ZM92.4471 25.49C92.4471 23.9033 92.2838 22.7833 91.9571 22.13C91.6304 21.43 90.9071 20.9167 89.7871 20.59L90.7671 16.39C90.8138 16.3433 90.9771 16.2733 91.2571 16.18C91.5838 16.0867 92.0038 16.04 92.5171 16.04C93.8704 16.0867 94.8971 16.32 95.5971 16.74C96.2971 17.1133 96.9738 17.8833 97.6271 19.05L98.6771 20.94H99.7971C101.057 19.26 102.504 18.0233 104.137 17.23C105.77 16.4367 107.754 16.04 110.087 16.04C113.68 16.04 116.527 16.9967 118.627 18.91C120.727 20.7767 121.777 23.4833 121.777 27.03C121.777 30.67 120.61 33.3767 118.277 35.15C115.944 36.9233 112.304 37.9967 107.357 38.37L99.3771 39V41.31C99.3771 44.11 99.9838 46.1167 101.197 47.33C102.41 48.4967 104.65 49.08 107.917 49.08C110.297 49.08 113.587 48.5667 117.787 47.54L119.047 51.67C117.46 52.2767 115.454 52.79 113.027 53.21C110.6 53.63 108.5 53.84 106.727 53.84C102.014 53.84 98.4438 52.9067 96.0171 51.04C93.6371 49.1267 92.4471 46.0933 92.4471 41.94V25.49ZM106.097 34.17C111.79 33.75 114.637 31.4867 114.637 27.38C114.637 22.9933 112.444 20.8 108.057 20.8C105.584 20.8 103.507 21.4067 101.827 22.62C100.194 23.7867 99.3771 25.7233 99.3771 28.43V34.66L106.097 34.17ZM142.249 16.88L134.549 30.46L126.849 16.88H142.249ZM126.849 53L134.549 39.42L142.249 53H126.849ZM156.109 1.2H149.109V53H156.109V1.2ZM166.793 4.63C166.793 3.41667 167.213 2.39 168.053 1.55C168.893 0.709999 169.919 0.289999 171.133 0.289999C172.346 0.289999 173.373 0.709999 174.213 1.55C175.053 2.39 175.473 3.41667 175.473 4.63C175.473 5.84333 175.053 6.87 174.213 7.71C173.373 8.55 172.346 8.97 171.133 8.97C169.919 8.97 168.893 8.55 168.053 7.71C167.213 6.87 166.793 5.84333 166.793 4.63ZM167.633 16.88H174.633V53H167.633V16.88ZM196.8 16.88L189.1 30.46L181.4 16.88H196.8ZM181.4 53L189.1 39.42L196.8 53H181.4ZM217.66 1.2H224.31L202.82 67.56H196.17L217.66 1.2Z" fill="white"/>
</svg>
