<svg width="95" height="67" viewBox="0 0 95 67" fill="none" xmlns="http://www.w3.org/2000/svg">
<path d="M21.81 0.199999H28.46L6.97 66.56H0.32L21.81 0.199999ZM34.6151 24.49C34.6151 22.9033 34.4517 21.7833 34.1251 21.13C33.7984 20.43 33.0751 19.9167 31.9551 19.59L32.9351 15.39C32.9817 15.3433 33.1451 15.2733 33.4251 15.18C33.7517 15.0867 34.1717 15.04 34.6851 15.04C36.0384 15.0867 37.0651 15.32 37.7651 15.74C38.4651 16.1133 39.1417 16.8833 39.7951 18.05L40.8451 19.94H41.9651C43.2251 18.26 44.6717 17.0233 46.3051 16.23C47.9384 15.4367 49.9217 15.04 52.2551 15.04C55.8484 15.04 58.6951 15.9967 60.7951 17.91C62.8951 19.7767 63.9451 22.4833 63.9451 26.03C63.9451 29.67 62.7784 32.3767 60.4451 34.15C58.1117 35.9233 54.4717 36.9967 49.5251 37.37L41.5451 38V40.31C41.5451 43.11 42.1517 45.1167 43.3651 46.33C44.5784 47.4967 46.8184 48.08 50.0851 48.08C52.4651 48.08 55.7551 47.5667 59.9551 46.54L61.2151 50.67C59.6284 51.2767 57.6217 51.79 55.1951 52.21C52.7684 52.63 50.6684 52.84 48.8951 52.84C44.1817 52.84 40.6117 51.9067 38.1851 50.04C35.8051 48.1267 34.6151 45.0933 34.6151 40.94V24.49ZM48.2651 33.17C53.9584 32.75 56.8051 30.4867 56.8051 26.38C56.8051 21.9933 54.6117 19.8 50.2251 19.8C47.7517 19.8 45.6751 20.4067 43.9951 21.62C42.3617 22.7867 41.5451 24.7233 41.5451 27.43V33.66L48.2651 33.17ZM87.7768 0.199999H94.4268L72.9368 66.56H66.2868L87.7768 0.199999Z" fill="white"/>
</svg>
